# Blender 4.0.0
# www.blender.org
mtllib ShipMesh.mtl
o Ship
v 53.313053 128.582092 -82.546051
v 53.313053 128.582092 90.645294
v 41.163578 538.579102 0.377068
v 41.163578 538.579102 96.456543
v -53.313053 128.582092 -82.546051
v -53.313053 128.582092 90.645294
v -41.163578 538.579102 0.377068
v -41.163578 538.579102 96.456543
v 0.000000 128.582092 -92.204399
v 0.000000 538.579102 96.456543
v 0.000000 538.579102 -11.413720
v 0.000000 128.582092 100.000015
v 100.000000 128.582092 21.989866
v 100.000000 128.582092 50.296558
v -31.583384 608.844299 59.509514
v -31.583384 608.844299 31.202816
v 31.583384 608.844299 31.202816
v 31.583384 608.844299 59.509514
v -100.000000 128.582092 50.296558
v -100.000000 128.582092 21.989866
v -53.313053 -108.089188 88.944450
v 0.000000 -110.640457 100.000023
v 0.000000 608.844299 31.202816
v 0.000000 608.844299 59.509514
v 58.313919 538.579102 24.373730
v 58.748348 538.579102 52.278919
v -57.613121 538.579102 53.328110
v -57.196339 538.579102 25.406616
v 0.000000 -36.230301 100.000015
v -53.313053 -33.679008 88.944450
v -53.313053 -36.230301 -82.546036
v 0.000000 -36.230301 -92.204384
v 53.313053 -36.230301 -82.546036
v 53.313053 -33.679008 88.944450
v 100.000000 -36.230301 50.296570
v -100.000000 -36.230301 21.989874
v -100.000000 -36.230301 50.296570
v 100.000000 -36.230301 21.989874
v 0.000000 -185.736542 49.706001
v -53.313053 -110.640457 -82.546036
v -0.000000 -119.995186 -90.503532
v 53.313053 -110.640457 -82.546036
v 53.313053 -108.089188 88.944450
v 0.000000 -185.736542 21.399303
v 100.000000 -174.640823 49.705997
v -100.000000 -174.640823 21.399303
v -100.000000 -174.640823 49.705997
v 100.000000 -174.640823 21.399303
v -616.151428 128.582092 -86.699165
v -616.151428 128.582092 -90.578072
v -642.684814 71.944214 -86.699158
v 616.151428 128.582092 -90.578072
v 616.151428 128.582092 -86.699165
v -642.684814 71.944214 -90.578064
v 642.684814 71.944214 -90.578064
v 642.684814 71.944214 -86.699158
v -223.403549 166.341125 33.216953
v -281.663300 166.662399 24.564249
v -251.284454 168.434113 31.008041
v -288.035614 166.662399 32.880146
v -230.635498 166.341125 42.698540
v -257.877563 168.434113 39.625359
v -318.906158 -36.230301 32.880154
v -299.009979 -36.230301 42.698547
v -310.008850 -36.230301 39.625366
v 281.663300 166.662399 24.564249
v 223.403549 166.341125 33.216953
v 251.284454 168.434113 31.008041
v 230.635498 166.341125 42.698540
v 288.035614 166.662399 32.880146
v 257.877563 168.434113 39.625359
v -291.778015 -36.230301 33.216961
v -312.533844 -36.230301 24.564259
v -303.415741 -36.230301 31.008049
v 291.778015 -36.230301 33.216961
v 312.533844 -36.230301 24.564259
v 303.415741 -36.230301 31.008049
v 318.906158 -36.230301 32.880154
v 299.009979 -36.230301 42.698547
v 310.008850 -36.230301 39.625366
v -424.295197 108.171822 -84.669975
v -403.706940 108.171822 -75.295860
v -412.771271 108.171822 -81.865944
v -395.460419 108.171822 -83.432693
v -416.235596 108.171822 -92.610008
v -404.544647 108.171822 -89.979301
v -425.315704 -36.230301 -84.669968
v -404.727448 -36.230301 -75.295853
v -413.791809 -36.230301 -81.865936
v 416.235596 108.171822 -92.610008
v 395.460419 108.171822 -83.432693
v 404.544647 108.171822 -89.979301
v 403.706940 108.171822 -75.295860
v 424.295197 108.171822 -84.669975
v 412.771271 108.171822 -81.865944
v -396.480927 -36.230301 -83.432686
v -417.256104 -36.230301 -92.610001
v -405.565155 -36.230301 -89.979294
v 396.480927 -36.230301 -83.432686
v 417.256104 -36.230301 -92.610001
v 405.565155 -36.230301 -89.979294
v 425.315704 -36.230301 -84.669968
v 404.727448 -36.230301 -75.295853
v 413.791809 -36.230301 -81.865936
v 77.191589 128.582092 -29.080036
v -77.191589 128.582092 -29.080036
v 49.935303 538.579102 12.650416
v -49.363705 538.579102 13.178698
v 77.191589 -36.230301 -29.080030
v -77.191589 -36.230301 -29.080030
v 77.191589 -154.680511 -29.080025
v -77.191589 -154.680511 -29.080025
v 0.000000 -164.925735 -32.967575
v -118.394661 147.461609 46.497551
v -115.805031 147.461609 27.603413
v -140.288696 -36.230301 27.603418
v -142.878326 -36.230301 46.497555
v 140.288696 -36.230301 27.603418
v 115.805031 147.461609 27.603413
v 118.394661 147.461609 46.497551
v 142.878326 -36.230301 46.497555
vn -0.0000 0.0985 -0.9951
vn -0.6076 0.0845 -0.7897
vn -0.5662 0.2980 -0.7685
vn -0.0000 0.3305 -0.9438
vn 0.5091 0.7537 -0.4157
vn -0.0000 0.8591 -0.5118
vn -0.0000 0.8560 0.5170
vn 0.4800 0.7674 0.4251
vn -0.0000 0.2396 0.9709
vn -0.4845 0.7653 0.4238
vn -0.4885 0.2201 0.8443
vn -0.0000 -0.0032 1.0000
vn 0.4623 0.0097 0.8867
vn 0.4858 0.2209 0.8457
vn -0.4629 0.0099 0.8864
vn -0.4329 -0.0029 0.9014
vn -0.0000 -0.0025 1.0000
vn -0.5145 0.7505 -0.4148
vn -0.8519 0.2203 -0.4751
vn -0.9427 0.2241 -0.2472
vn 0.9033 0.0524 -0.4258
vn 0.6058 0.0844 -0.7911
vn 0.5551 0.2998 -0.7759
vn 0.8362 0.2264 -0.4995
vn -0.0000 -0.0054 -1.0000
vn -0.6142 -0.0030 -0.7892
vn -0.9488 0.2059 0.2394
vn -0.5422 0.2176 0.8116
vn -0.6656 -0.2606 0.6994
vn 0.7044 0.2291 -0.6718
vn 0.9378 0.2295 -0.2604
vn 0.9473 0.2103 0.2418
vn 0.5417 0.2166 0.8122
vn 0.6142 -0.0030 -0.7892
vn -0.0308 0.7049 0.7086
vn 0.0954 0.6753 -0.7313
vn -0.4065 0.7125 -0.5719
vn -0.3905 0.6842 0.6159
vn -0.9054 0.0529 -0.4212
vn -0.9129 0.0002 -0.4082
vn 0.4329 -0.0029 0.9014
vn -0.0000 -0.2634 0.9647
vn 0.3619 -0.1901 0.9126
vn -0.7058 0.2307 -0.6698
vn 0.9129 0.0002 -0.4082
vn 0.8324 -0.2475 -0.4959
vn 0.7263 -0.6463 -0.2340
vn 0.6169 -0.5594 -0.5536
vn -0.3619 -0.1901 0.9126
vn 0.6656 -0.2606 0.6994
vn 0.6658 -0.6061 0.4351
vn 0.5406 -0.2963 -0.7873
vn -0.0000 -0.4463 -0.8949
vn -0.6658 -0.6061 0.4351
vn -0.3585 -0.7721 -0.5248
vn -0.1864 0.7485 -0.6364
vn -0.4340 0.6193 -0.6543
vn -0.4849 -0.6894 -0.5382
vn -0.0000 -0.8540 -0.5203
vn -0.0000 -0.8769 0.4807
vn -0.0000 -0.9811 -0.1937
vn -0.7263 -0.6463 -0.2340
vn -0.6169 -0.5594 -0.5536
vn -0.5406 -0.2963 -0.7873
vn -0.8324 -0.2475 -0.4959
vn 0.4779 0.7036 0.5260
vn 0.5678 0.6850 0.4565
vn 0.4233 -0.6647 0.6156
vn 0.4584 -0.7265 0.5119
vn 0.1864 0.7485 -0.6364
vn 0.3585 -0.7721 -0.5248
vn 0.4849 -0.6894 -0.5382
vn 0.4340 0.6193 -0.6543
vn -0.4233 -0.6647 0.6156
vn -0.4584 -0.7265 0.5119
vn -0.3706 0.7029 -0.6070
vn -0.3275 0.6770 0.6591
vn -0.0128 0.6975 0.7165
vn -0.1217 0.7412 -0.6601
vn -0.4779 0.7036 0.5260
vn -0.5678 0.6850 0.4565
vn -0.0778 -0.7151 -0.6946
vn -0.0494 -0.7120 0.7005
vn -0.0784 -0.6675 0.7404
vn 0.0332 -0.7376 -0.6744
vn 0.0308 0.7049 0.7086
vn 0.3496 -0.7771 0.5234
vn 0.8442 -0.2775 0.4585
vn 0.3905 0.6842 0.6159
vn -0.0076 -0.7052 -0.7090
vn -0.6994 -0.2299 -0.6767
vn 0.0778 -0.7151 -0.6946
vn -0.0332 -0.7376 -0.6744
vn 0.3275 0.6770 0.6591
vn 0.3706 0.7029 -0.6070
vn 0.1217 0.7412 -0.6601
vn 0.0128 0.6975 0.7165
vn 0.0494 -0.7120 0.7005
vn 0.0784 -0.6675 0.7404
vn -0.8442 -0.2775 0.4585
vn 0.4065 0.7125 -0.5719
vn 0.6994 -0.2299 -0.6767
vn -0.0954 0.6753 -0.7313
vn 0.0076 -0.7052 -0.7090
vn -0.3496 -0.7771 0.5234
vn 0.1588 0.7275 -0.6675
vn -0.1641 0.7307 0.6626
vn -0.1960 -0.6427 0.7406
vn 0.1641 0.7307 0.6626
vn -0.1588 0.7275 -0.6675
vn 0.1446 -0.7708 -0.6205
vn 0.1960 -0.6427 0.7406
vn -0.1446 -0.7708 -0.6205
vn 0.3076 0.6636 -0.6819
vn -0.2760 0.7542 0.5958
vn -0.2759 -0.7523 0.5983
vn 0.2760 0.7542 0.5958
vn -0.3076 0.6636 -0.6819
vn 0.3057 -0.6658 -0.6807
vn 0.2759 -0.7523 0.5983
vn -0.3057 -0.6658 -0.6807
vt 0.750000 0.500000
vt 0.875000 0.500000
vt 0.875000 0.750000
vt 0.750000 0.750000
vt 0.517692 0.750000
vt 0.517692 0.875000
vt 0.482308 0.875000
vt 0.482308 0.750000
vt 0.375000 0.875000
vt 0.482308 1.000000
vt 0.375000 1.000000
vt 0.250000 0.500000
vt 0.375000 0.500000
vt 0.375000 0.750000
vt 0.250000 0.750000
vt 0.125000 0.500000
vt 0.517692 0.000000
vt 0.625000 0.000000
vt 0.570116 0.016340
vt 0.517692 0.031948
vt 0.570116 0.500000
vt 0.625000 0.500000
vt 0.625000 0.750000
vt 0.570116 0.730748
vt 0.625000 0.875000
vt 0.625000 1.000000
vt 0.517692 1.000000
vt 0.375000 0.000000
vt 0.482308 0.000000
vt 0.482308 0.034071
vt 0.375000 0.250000
vt 0.482308 0.250000
vt 0.517692 0.500000
vt 0.517692 0.712359
vt 0.482308 0.710145
vt 0.482308 0.500000
vt 0.517692 0.250000
vt 0.570116 0.250000
vt 0.625000 0.250000
vt 0.570116 0.250000
vt 0.125000 0.750000
vt 0.482308 0.750000
vt 0.517692 0.750000
vt 0.570116 0.500000
vt 0.570116 0.500000
vt 0.570116 0.375000
vt 0.625000 0.375000
vt 0.375000 0.375000
vt 0.482308 0.375000
vt 0.482308 0.500000
vt 0.517692 0.375000
vt 0.482308 0.250000
vt 0.517692 0.250000
vt 0.482308 0.250000
vt 0.517692 0.500000
vt 0.517692 0.250000
vt 0.487374 0.250000
vt 0.487374 0.500000
vt 0.512768 0.250000
vt 0.512768 0.500000
s 1
usemtl Material
f 9/1/1 5/2/2 7/3/3 11/4/4
f 17/5/5 23/6/6 24/7/7 18/8/8
f 10/9/9 24/7/7 15/10/10 8/11/11
f 12/12/12 2/13/13 4/14/14 10/15/9
f 12/12/12 6/16/15 30/16/16 29/12/17
f 16/17/18 7/18/3 108/19/19 28/20/20
f 105/21/21 1/22/22 3/23/23 107/24/24
f 5/2/2 9/1/1 32/1/25 31/2/26
f 23/6/6 11/25/4 7/26/3 16/27/18
f 8/28/11 15/29/10 27/30/27
f 6/31/15 19/32/28 37/32/29 30/31/16
f 13/33/30 25/34/31 26/35/32 14/36/33
f 16/17/18 28/20/20 27/30/27 15/29/10
f 23/6/6 16/27/18 15/10/10 24/7/7
f 2/13/13 14/36/33 26/35/32 4/14/14
f 9/1/1 1/22/22 33/22/34 32/1/25
f 17/5/5 3/23/23 11/25/4 23/6/6
f 81/32/35 85/37/36 50/37/37 49/32/38
f 106/38/39 5/39/2 31/39/26 110/40/40
f 6/16/15 12/12/12 10/15/9 8/41/11
f 4/14/14 18/8/8 24/7/7 10/9/9
f 1/22/22 9/1/1 11/4/4 3/23/23
f 34/13/41 29/12/17 22/12/42 43/13/43
f 4/14/14 26/35/32 18/42/8
f 26/35/32 25/34/31 17/43/5 18/42/8
f 25/34/31 107/24/24 3/23/23 17/43/5
f 108/19/19 7/18/3 5/39/2 106/38/39
f 27/30/27 28/20/20 20/37/44 19/32/28
f 27/30/27 19/32/28 6/31/15 8/28/11
f 109/44/45 38/33/46 48/33/47 111/45/48
f 29/12/17 30/16/16 21/16/49 22/12/42
f 38/33/46 35/36/50 45/36/51 48/33/47
f 32/1/25 33/22/34 42/22/52 41/1/53
f 30/31/16 37/32/29 47/32/54 21/31/49
f 105/21/21 13/33/30 38/33/46 109/44/45
f 2/13/13 12/12/12 29/12/17 34/13/41
f 14/36/33 2/13/13 34/13/41 35/36/50
f 76/33/55 66/33/56 91/33/57 99/33/58
f 113/46/59 41/47/53 42/22/52 111/45/48
f 22/48/42 39/49/60 45/50/51 43/13/43
f 44/51/61 48/33/47 45/50/51 39/49/60
f 46/37/62 44/51/61 39/49/60 47/52/54
f 21/31/49 47/52/54 39/49/60 22/48/42
f 112/40/63 40/39/64 41/47/53 113/46/59
f 37/32/29 36/37/65 46/37/62 47/32/54
f 110/40/40 31/39/26 40/39/64 112/40/63
f 35/36/50 34/13/41 43/13/43 45/36/51
f 31/2/26 32/1/25 41/1/53 40/2/64
f 66/33/56 70/36/66 93/36/67 91/33/57
f 70/36/66 78/36/68 103/36/69 93/36/67
f 58/37/70 73/37/71 96/37/72 84/37/73
f 78/36/68 76/33/55 99/33/58 103/36/69
f 73/37/71 63/32/74 88/32/75 96/37/72
f 119/33/76 120/50/77 69/36/78 67/33/79
f 63/32/74 60/32/80 82/32/81 88/32/75
f 116/53/82 117/32/83 64/54/84 72/37/85
f 94/36/86 102/36/87 56/36/88 53/36/89
f 85/37/36 97/37/90 54/37/91 50/37/37
f 118/55/92 119/33/76 67/33/79 75/33/93
f 114/32/94 115/56/95 57/37/96 61/54/97
f 120/50/77 121/36/98 79/36/99 69/50/78
f 121/36/98 118/55/92 75/33/93 79/50/99
f 115/56/95 116/53/82 72/37/85 57/37/96
f 117/32/83 114/32/94 61/32/97 64/54/84
f 49/32/38 50/37/37 54/37/91 51/32/100
f 52/33/101 53/36/89 56/36/88 55/33/102
f 90/33/103 94/36/86 53/36/89 52/33/101
f 100/33/104 90/33/103 52/33/101 55/33/102
f 87/32/105 81/32/35 49/32/38 51/32/100
f 102/36/87 100/33/104 55/33/102 56/36/88
f 97/37/90 87/32/105 51/32/100 54/37/91
f 61/54/97 57/37/96 59/37/106 62/57/107
f 62/57/107 59/37/106 58/37/70 60/32/80
f 64/54/84 61/32/97 62/57/107 65/57/108
f 65/57/108 62/57/107 60/32/80 63/32/74
f 67/33/79 69/36/78 71/58/109 68/33/110
f 68/33/110 71/58/109 70/36/66 66/33/56
f 73/37/71 58/37/70 59/37/106 74/37/111
f 74/37/111 59/37/106 57/37/96 72/37/85
f 63/32/74 73/37/71 74/37/111 65/57/108
f 65/57/108 74/37/111 72/37/85 64/54/84
f 76/33/55 78/36/68 80/58/112 77/33/113
f 77/33/113 80/58/112 79/50/99 75/33/93
f 66/33/56 76/33/55 77/33/113 68/33/110
f 68/33/110 77/33/113 75/33/93 67/33/79
f 78/36/68 70/36/66 71/58/109 80/58/112
f 80/58/112 71/58/109 69/50/78 79/36/99
f 82/32/81 84/37/73 86/59/114 83/32/115
f 83/32/115 86/59/114 85/37/36 81/32/35
f 88/32/75 82/32/81 83/32/115 89/32/116
f 89/32/116 83/32/115 81/32/35 87/32/105
f 91/33/57 93/36/67 95/36/117 92/60/118
f 92/60/118 95/36/117 94/36/86 90/33/103
f 97/37/90 85/37/36 86/59/114 98/59/119
f 98/59/119 86/59/114 84/37/73 96/37/72
f 87/32/105 97/37/90 98/59/119 89/32/116
f 89/32/116 98/59/119 96/37/72 88/32/75
f 100/33/104 102/36/87 104/36/120 101/60/121
f 101/60/121 104/36/120 103/36/69 99/33/58
f 90/33/103 100/33/104 101/60/121 92/60/118
f 92/60/118 101/60/121 99/33/58 91/33/57
f 102/36/87 94/36/86 95/36/117 104/36/120
f 104/36/120 95/36/117 93/36/67 103/36/69
f 60/32/80 58/37/70 84/37/73 82/32/81
f 36/37/65 110/40/40 112/40/63 46/37/62
f 46/37/62 112/40/63 113/46/59 44/51/61
f 44/51/61 113/46/59 111/45/48 48/33/47
f 1/22/22 105/21/21 109/44/45 33/22/34
f 33/22/34 109/44/45 111/45/48 42/22/52
f 28/20/20 108/19/19 106/38/39 20/37/44
f 20/37/44 106/38/39 110/40/40 36/37/65
f 13/33/30 105/21/21 107/24/24 25/34/31
f 37/32/29 19/32/28 114/32/94 117/32/83
f 20/37/44 36/37/65 116/53/82 115/56/95
f 19/32/28 20/37/44 115/56/95 114/32/94
f 36/37/65 37/32/29 117/32/83 116/53/82
f 35/36/50 38/33/46 118/55/92 121/36/98
f 14/36/33 35/36/50 121/36/98 120/50/77
f 38/33/46 13/33/30 119/33/76 118/55/92
f 13/33/30 14/36/33 120/50/77 119/33/76
